<svg width="56" height="56" viewBox="0 0 56 56" fill="none" xmlns="http://www.w3.org/2000/svg">
<rect x="4" y="4" width="48" height="48" rx="24" fill="#DCFAE6"/>
<rect x="4" y="4" width="48" height="48" rx="24" stroke="#ECFDF3" stroke-width="8"/>
<path d="M28.9999 18.0541L20.0933 29.0308C19.7445 29.4607 19.5701 29.6756 19.5674 29.8571C19.5651 30.015 19.6336 30.1651 19.7531 30.2643C19.8906 30.3784 20.163 30.3784 20.7079 30.3784H27.9999L26.9999 38.5946L35.9064 27.6179C36.2552 27.188 36.4296 26.9731 36.4323 26.7915C36.4346 26.6337 36.3661 26.4836 36.2466 26.3844C36.1091 26.2703 35.8367 26.2703 35.2918 26.2703H27.9999L28.9999 18.0541Z" stroke="#079455" stroke-width="2" stroke-linecap="round" stroke-linejoin="round"/>
</svg>
